<svg width="995" height="995" viewBox="0 0 995 995" fill="none" xmlns="http://www.w3.org/2000/svg">
<rect width="995" height="995" rx="497.5" fill="white"/>
<path d="M426.112 367.433C426.112 379.679 423.573 391.03 418.495 401.484C413.417 411.938 406.547 421.497 397.885 430.159C389.223 438.522 379.067 445.99 367.418 452.561C356.068 458.834 343.971 464.21 331.127 468.691C318.581 472.872 305.588 476.158 292.147 478.547C279.004 480.638 266.31 481.684 254.063 481.684C243.012 481.684 232.707 480.788 223.148 478.996C237.486 426.724 248.836 374.153 257.2 321.284C265.862 268.117 274.076 214.65 281.842 160.885C297.374 157.599 313.504 154.762 330.231 152.372C346.958 149.684 364.282 148.34 382.204 148.34C389.671 148.34 397.586 149.236 405.95 151.028C414.313 152.82 421.93 156.106 428.8 160.885C435.67 165.664 441.345 171.937 445.826 179.703C450.605 187.469 452.994 197.326 452.994 209.274C452.994 220.624 451.053 231.228 447.17 241.085C443.585 250.942 438.806 259.903 432.832 267.967C427.157 276.032 420.586 283.051 413.119 289.025C405.651 294.701 398.034 299.032 390.268 302.019C394.151 304.109 398.184 307.096 402.366 310.979C406.547 314.862 410.43 319.492 414.015 324.869C417.599 329.947 420.437 336.07 422.527 343.239C424.917 350.407 426.112 358.472 426.112 367.433ZM323.51 320.836C322.315 328.005 321.12 334.427 319.926 340.102C319.03 345.479 318.133 350.706 317.237 355.784C316.341 360.862 315.296 366.238 314.101 371.913C313.205 377.29 312.16 383.712 310.965 391.179C316.64 390.582 323.062 389.536 330.231 388.043C337.399 386.549 344.269 384.309 350.841 381.322C357.412 378.037 362.938 373.855 367.418 368.777C371.899 363.4 374.139 356.978 374.139 349.511C374.139 344.135 372.645 339.654 369.658 336.07C366.97 332.485 363.386 329.499 358.905 327.109C354.724 324.719 350.094 323.077 345.016 322.18C339.938 320.986 335.159 320.388 330.679 320.388C329.185 320.388 327.841 320.388 326.646 320.388C325.75 320.388 324.705 320.538 323.51 320.836ZM343.672 212.41C343.074 215.696 342.328 219.579 341.432 224.059C340.834 228.539 340.088 233.319 339.191 238.396C338.295 243.176 337.25 247.955 336.055 252.734C335.159 257.513 334.412 261.695 333.815 265.279C340.386 264.084 346.958 262.441 353.529 260.351C360.1 258.26 365.925 256.019 371.003 253.63C376.379 250.942 380.561 248.104 383.548 245.117C386.833 242.13 388.476 238.844 388.476 235.26C388.476 230.78 387.132 227.195 384.444 224.507C381.756 221.52 378.171 219.131 373.691 217.338C369.509 215.546 365.029 214.351 360.249 213.754C355.769 212.858 351.737 212.41 348.152 212.41H343.672ZM538.9 465.554C529.64 465.554 519.783 465.853 509.329 466.45C499.173 467.048 488.868 467.944 478.414 469.139C467.959 470.333 457.654 471.976 447.499 474.067C437.642 475.859 428.681 478.099 420.616 480.788C422.408 467.346 424.499 452.412 426.889 435.983C429.278 419.555 431.967 402.53 434.954 384.906C438.239 367.283 441.376 349.511 444.363 331.589C447.648 313.668 450.934 296.493 454.219 280.064C461.687 240.935 469.602 201.06 477.966 160.437L556.373 150.132C548.309 184.781 540.542 218.533 533.075 251.39C529.789 265.428 526.504 280.064 523.218 295.298C519.932 310.233 516.796 324.869 513.809 339.206C510.822 353.543 508.134 367.433 505.744 380.874C503.355 394.315 501.413 406.263 499.92 416.718C507.387 416.12 515.303 415.821 523.666 415.821C532.328 415.523 539.945 415.373 546.516 415.373C546.815 421.049 547.263 426.724 547.86 432.399C548.458 437.776 549.055 442.704 549.653 447.184C550.549 451.665 551.146 455.697 551.445 459.282C552.042 462.567 552.49 464.807 552.789 466.002C550.399 466.002 548.01 466.002 545.62 466.002C543.529 465.704 541.289 465.554 538.9 465.554ZM801.344 237.5C801.344 261.993 798.656 285.142 793.279 306.947C788.202 328.453 781.332 348.316 772.669 366.537C764.007 384.458 753.852 400.588 742.203 414.925C730.852 428.964 718.904 441.061 706.359 451.217C693.814 461.074 681.119 468.691 668.275 474.067C655.432 479.145 643.185 481.684 631.536 481.684C621.679 481.684 612.718 479.892 604.653 476.307C596.589 472.424 589.569 466.898 583.595 459.73C577.621 452.262 572.842 442.853 569.258 431.503C565.972 419.854 564.33 405.965 564.33 389.835C564.33 373.108 566.42 355.485 570.602 336.966C574.784 318.447 580.459 300.077 587.628 281.857C594.796 263.636 603.608 246.312 614.062 229.884C624.517 213.455 636.016 198.969 648.562 186.423C661.107 173.58 674.548 163.424 688.885 155.957C703.223 148.489 718.158 144.755 733.69 144.755C747.131 144.755 758.183 147.593 766.845 153.268C775.806 158.645 782.676 165.813 787.455 174.774C792.533 183.437 796.117 193.293 798.208 204.345C800.299 215.397 801.344 226.449 801.344 237.5ZM631.088 378.186C631.088 381.471 631.685 384.906 632.88 388.491C634.075 392.075 635.718 395.211 637.809 397.9C639.899 400.588 642.438 402.978 645.425 405.068C648.711 406.861 652.146 407.757 655.73 407.757C669.172 407.757 681.119 403.127 691.574 393.867C702.028 384.608 710.69 373.257 717.56 359.816C724.43 346.375 729.657 332.037 733.242 316.804C737.125 301.571 739.066 287.681 739.066 275.136C739.066 271.552 738.768 267.669 738.17 263.487C737.871 259.305 736.975 255.422 735.482 251.838C734.287 248.253 732.196 245.266 729.209 242.877C726.521 240.189 722.787 238.844 718.008 238.844C708.45 238.844 699.638 241.234 691.574 246.013C683.509 250.792 676.191 257.214 669.62 265.279C663.347 273.045 657.821 282.006 653.042 292.162C648.263 302.019 644.081 312.174 640.497 322.629C637.211 332.784 634.822 342.79 633.328 352.647C631.835 362.504 631.088 371.017 631.088 378.186Z" fill="#1B202A"/>
<path d="M405.857 658.187C403.766 688.654 397.792 715.238 387.935 737.939C378.078 760.341 366.131 779.159 352.092 794.392C338.352 809.626 323.417 820.976 307.288 828.444C291.457 835.911 276.373 839.645 262.035 839.645C250.984 839.645 240.38 837.255 230.224 832.476C220.367 827.697 211.705 820.528 204.238 810.97C197.069 801.113 191.394 788.866 187.212 774.23C183.03 759.594 180.94 742.419 180.94 722.705C180.94 684.174 186.465 650.571 197.517 621.896C208.569 593.221 222.458 569.325 239.185 550.209C256.211 531.092 274.282 516.904 293.398 507.645C312.814 498.385 330.885 493.755 347.612 493.755C359.559 493.755 369.864 495.846 378.526 500.028C387.487 504.21 394.805 509.885 400.481 517.054C406.156 523.924 410.188 532.138 412.578 541.696C415.266 550.956 416.61 560.813 416.61 571.267L355.228 582.916C352.54 570.968 348.956 562.455 344.475 557.378C339.995 552.3 334.917 549.761 329.242 549.761C321.774 549.761 313.56 555.137 304.599 565.89C295.639 576.345 287.275 589.935 279.509 606.662C271.743 623.389 265.172 641.759 259.795 661.772C254.419 681.784 251.432 701.498 250.834 720.913C250.834 739.432 253.522 752.724 258.899 760.789C264.574 768.555 271.743 772.438 280.405 772.438C286.379 772.438 292.502 770.945 298.775 767.958C305.346 764.971 311.171 760.789 316.249 755.413C321.326 749.737 325.508 743.315 328.794 736.147C332.378 728.679 334.32 720.615 334.618 711.952L286.678 719.121L295.19 674.765C309.229 672.973 322.969 671.18 336.41 669.388C347.761 667.895 359.709 666.103 372.254 664.012C385.098 661.921 396.299 659.979 405.857 658.187ZM629.441 658.187C627.35 688.654 621.376 715.238 611.519 737.939C601.662 760.341 589.715 779.159 575.676 794.392C561.936 809.626 547.001 820.976 530.872 828.444C515.041 835.911 499.957 839.645 485.619 839.645C474.568 839.645 463.964 837.255 453.808 832.476C443.951 827.697 435.289 820.528 427.822 810.97C420.653 801.113 414.978 788.866 410.796 774.23C406.614 759.594 404.523 742.419 404.523 722.705C404.523 684.174 410.049 650.571 421.101 621.896C432.153 593.221 446.042 569.325 462.769 550.209C479.795 531.092 497.866 516.904 516.982 507.645C536.397 498.385 554.469 493.755 571.195 493.755C583.143 493.755 593.448 495.846 602.11 500.028C611.071 504.21 618.389 509.885 624.065 517.054C629.74 523.924 633.772 532.138 636.162 541.696C638.85 550.956 640.194 560.813 640.194 571.267L578.812 582.916C576.124 570.968 572.54 562.455 568.059 557.378C563.579 552.3 558.501 549.761 552.826 549.761C545.358 549.761 537.144 555.137 528.183 565.89C519.222 576.345 510.859 589.935 503.093 606.662C495.327 623.389 488.756 641.759 483.379 661.772C478.003 681.784 475.016 701.498 474.418 720.913C474.418 739.432 477.106 752.724 482.483 760.789C488.158 768.555 495.327 772.438 503.989 772.438C509.963 772.438 516.086 770.945 522.359 767.958C528.93 764.971 534.755 760.789 539.832 755.413C544.91 749.737 549.092 743.315 552.378 736.147C555.962 728.679 557.903 720.615 558.202 711.952L510.262 719.121L518.774 674.765C532.813 672.973 546.553 671.18 559.994 669.388C571.345 667.895 583.293 666.103 595.838 664.012C608.682 661.921 619.883 659.979 629.441 658.187ZM853.025 658.187C850.934 688.654 844.96 715.238 835.103 737.939C825.246 760.341 813.298 779.159 799.26 794.392C785.52 809.626 770.585 820.976 754.455 828.444C738.625 835.911 723.541 839.645 709.203 839.645C698.151 839.645 687.548 837.255 677.392 832.476C667.535 827.697 658.873 820.528 651.406 810.97C644.237 801.113 638.562 788.866 634.38 774.23C630.198 759.594 628.107 742.419 628.107 722.705C628.107 684.174 633.633 650.571 644.685 621.896C655.737 593.221 669.626 569.325 686.353 550.209C703.379 531.092 721.45 516.904 740.566 507.645C759.981 498.385 778.052 493.755 794.779 493.755C806.727 493.755 817.032 495.846 825.694 500.028C834.655 504.21 841.973 509.885 847.648 517.054C853.324 523.924 857.356 532.138 859.746 541.696C862.434 550.956 863.778 560.813 863.778 571.267L802.396 582.916C799.708 570.968 796.123 562.455 791.643 557.378C787.163 552.3 782.085 549.761 776.41 549.761C768.942 549.761 760.728 555.137 751.767 565.89C742.806 576.345 734.443 589.935 726.677 606.662C718.911 623.389 712.339 641.759 706.963 661.772C701.586 681.784 698.599 701.498 698.002 720.913C698.002 739.432 700.69 752.724 706.067 760.789C711.742 768.555 718.911 772.438 727.573 772.438C733.547 772.438 739.67 770.945 745.943 767.958C752.514 764.971 758.339 760.789 763.416 755.413C768.494 749.737 772.676 743.315 775.962 736.147C779.546 728.679 781.487 720.615 781.786 711.952L733.846 719.121L742.358 674.765C756.397 672.973 770.137 671.18 783.578 669.388C794.929 667.895 806.877 666.103 819.422 664.012C832.266 661.921 843.467 659.979 853.025 658.187Z" fill="#0F0FD1"/>
</svg>
